# xmcd CD database file
# Copyright (C) 1993-1998 Ti Kan
#
# Track frame offsets:
#  182
#  13902
#  29292
#  33010
#  43582
#  67162
#  85062
#  101190
#  114532
#  129015
#  144747
#  147252
#
# Disc length: 2200 seconds
#
# Revision: 1
# Processed by: cddbd v1.4b41PL1 Copyright (c) Steve Scherf et al.
# Submitted via: CDWizzard Release:4.35
#
DISCID=a308960c
DTITLE=Bill Anderson - countrry Music Heaven
DYEAR=1900
DGENRE=
TTITLE0=Drinking From My Ssaucer
TTITLE1=The Touch Of The Master's Hand
TTITLE2=I Said A Prayer For You Today
TTITLE3=Friends
TTITLE4=Ol' Doc Brown
TTITLE5=Country Music Heaven
TTITLE6=Footprints In The Sand
TTITLE7=One Solitary Life
TTITLE8=Trouble In The Amen Corner
TTITLE9=The Farmer And The Lord
TTITLE10=The Serenity Prayer
TTITLE11=Whispering Hope
EXTD=
EXTT0=
EXTT1=
EXTT2=
EXTT3=
EXTT4=
EXTT5=
EXTT6=
EXTT7=
EXTT8=
EXTT9=
EXTT10=
EXTT11=
PLAYORDER=
